HIERARCHY
ROOT hip
{
  OFFSET 0.0 0.0 0.0
  CHANNELS 6 Xposition Yposition Zposition Zrotation Yrotation Xrotation
  JOINT torso
  {
    OFFSET 0.0 0.0 0.0
    CHANNELS 3 Zrotation Xrotation Yrotation
    JOINT neck
    {
      OFFSET -8.059630999999968 325.56260699999996 64.6221310000002
      CHANNELS 3 Zrotation Xrotation Yrotation
      JOINT head
      {
        OFFSET 34.685424000000125 375.1179809999999 232.79357900000002
        CHANNELS 3 Zrotation Xrotation Yrotation
        End Site
        {
          OFFSET 0.0 0.0 0.0
        }
      }
    }
    JOINT left_collar
    {
      OFFSET -8.059630999999968 325.56260699999996 64.6221310000002
      CHANNELS 3 Zrotation Xrotation Yrotation
      JOINT left_upper_arm
      {
        OFFSET -124.124665 -15.370300999999927 25.582641999999964
        CHANNELS 3 Zrotation Xrotation Yrotation
        JOINT left_forearm
        {
          OFFSET -268.19913399999996 105.06054699999993 114.74548300000004
          CHANNELS 3 Zrotation Xrotation Yrotation
          JOINT left_hand
          {
            OFFSET -235.82003099999991 -10.198180999999977 -38.67455999999993
            CHANNELS 3 Zrotation Xrotation Yrotation
            End Site
            {
              OFFSET 0.0 0.0 0.0
            }
          }
        }
      }
    }
    JOINT right_collar
    {
      OFFSET -8.059630999999968 325.56260699999996 64.6221310000002
      CHANNELS 3 Zrotation Xrotation Yrotation
      JOINT right_upper_arm
      {
        OFFSET 162.73931899999997 -2.8598030000000563 26.244994999999903
        CHANNELS 3 Zrotation Xrotation Yrotation
        JOINT right_forearm
        {
          OFFSET 284.6506340000001 103.07031299999994 145.84521499999994
          CHANNELS 3 Zrotation Xrotation Yrotation
          JOINT right_hand
          {
            OFFSET 226.332337 -12.198241999999937 -49.27258299999994
            CHANNELS 3 Zrotation Xrotation Yrotation
            End Site
            {
              OFFSET 0.0 0.0 0.0
            }
          }
        }
      }
    }
  }
}
MOTION
Frames: 6
Frame Time: 0.01
381.18283975385657 227.7562516800161 757.3881637299481 -0.6766041075836187 0.7488949174646176 -2.1297292009818425 0.8478816697687391 -3.437936230749785 -0.2772818310281001 -0.6641133244956213 4.106286708934298 0.008682649053685697 0.0 0.0 0.0 0.11549299923165779 -0.10127496474538049 1.0032691864848446 1.0111471078171284 4.5754037664903064 11.337734277916368 -0.976943502521593 0.2523005157703957 -2.682107123163824 0.0 0.0 0.0 -0.7407638949474826 0.21304980868334983 3.8429209617626734 3.5773002177012807 2.3426329785292825 -10.807568257463439 -5.699088165072772 -1.726145549810407 -4.485129878379982 0.0 0.0 0.0
381.07681129106777 227.73390015213548 757.4486466962276 -0.6794155443003287 0.756030889913035 -2.1110220367801458 0.851807158723277 -3.4554431469573736 -0.2787263493757693 -0.6609425608038789 4.1139326975114034 0.006015939885893938 0.0 0.0 0.0 0.11215714257607795 -0.1003360654947191 0.9904444185083203 1.003865753491843 4.573361483621561 11.33811114835157 -0.991604916995036 0.25461208029912263 -2.689737345467816 0.0 0.0 0.0 -0.7337333491126248 0.21185291547427693 3.850314732628934 3.5694613363651686 2.353854192333718 -10.829381547187419 -5.691005724036625 -1.7239251248610765 -4.484118355536404 0.0 0.0 0.0
380.96940321282 227.7113667007839 757.5099823474332 -0.6820160416924094 0.7637415347943792 -2.0918864846239202 0.8556133491826626 -3.4737574216533056 -0.28017033331570795 -0.6577276659077044 4.122035776925597 0.00327705489597682 0.0 0.0 0.0 0.10865299739987953 -0.09937720746497236 0.9771868054963211 0.9968829373391882 4.571572741634848 11.33895402483672 -1.00715828751705 0.25706961798653005 -2.6980540199137595 0.0 0.0 0.0 -0.7267495376065065 0.21066008048786863 3.8575373737661423 3.561841474785329 2.3649860588152762 -10.851201762542235 -5.6839177428054795 -1.7220517985787842 -4.483913123193253 0.0 0.0 0.0
380.86064191806776 227.68851008989665 757.5721571728269 -0.6842902049387434 0.7719839350651068 -2.0722843794175083 0.8591988454902695 -3.4928946421926326 -0.2815912034741267 -0.654442803683857 4.13059757308624 0.00045039268430439823 0.0 0.0 0.0 0.10499221766681825 -0.09839558696407262 0.9634915230962492 0.9902108986328425 4.570032925682573 11.340239164424583 -1.0234885939120206 0.25965450299940745 -2.706995922241413 0.0 0.0 0.0 -0.719750671308841 0.20946161650515063 3.8646872177369076 3.554414742426761 2.3760877005922962 -10.873159921642756 -5.6781558783399895 -1.7206004790897513 -4.484407511082833 0.0 0.0 0.0
380.75056705903353 227.66516848344133 757.6351436534151 -0.6861332339670803 0.7806900705585018 -2.052190517434955 0.8624717812844637 -3.512845639780572 -0.28296769826156376 -0.6510665558784358 4.13960067308489 -0.0024750844428300146 0.0 0.0 0.0 0.10119390952821933 -0.09738950506630785 0.9493744751792385 0.9838531362172879 4.568728986402425 11.341926372076756 -1.0404484098752116 0.2623429900869098 -2.7164828157395955 0.0 0.0 0.0 -0.7126815071116711 0.20824887402577044 3.871854105235535 3.5471507418111745 2.3872093487995354 -10.895358609446111 -5.674028217977029 -1.7196365151547148 -4.4854626265035344 0.0 0.0 0.0
380.6392464609895 227.6411633719697 757.6988899157351 -0.6874549758526735 0.7897647265563417 -2.031596769822719 0.8653533373143194 -3.5335712970496296 -0.2842805099896138 -0.6475833887316946 4.1490051893271795 -0.005504629027550654 0.0 0.0 0.0 0.09728543504364869 -0.09635863981216806 0.934875828230996 0.9778044060828581 4.567639111976006 11.343958085419924 -1.0578591504945936 0.2651064965641079 -2.7264174903765315 0.0 0.0 0.0 -0.7054970226273776 0.2070148360577905 3.8791139664391747 3.540014459164653 2.3983891551943968 -10.917863240173297 -5.6718023029686195 -1.7192110353923011 -4.4869051745463935 0.0 0.0 0.0
